Coordinates
version=1
nRows=11
nColumns=40
inDegrees=yes

Units are S.I. units (second, meters, Newtons, ...)
If the header above contains a line with 'inDegrees', this indicates whether rotational values are in degrees (yes) or radians (no).

endheader
time	pelvis_tilt	pelvis_list	pelvis_rotation	pelvis_tx	pelvis_ty	pelvis_tz	hip_flexion_r	hip_adduction_r	hip_rotation_r	knee_angle_r	knee_angle_r_beta	ankle_angle_r	subtalar_angle_r	mtp_angle_r	hip_flexion_l	hip_adduction_l	hip_rotation_l	knee_angle_l	knee_angle_l_beta	ankle_angle_l	subtalar_angle_l	mtp_angle_l	lumbar_extension	lumbar_bending	lumbar_rotation	arm_flex_r	arm_add_r	arm_rot_r	elbow_flex_r	pro_sup_r	wrist_flex_r	wrist_dev_r	arm_flex_l	arm_add_l	arm_rot_l	elbow_flex_l	pro_sup_l	wrist_flex_l	wrist_dev_l
      4.59000000	    -17.04440410	      1.91142422	      3.83180934	     -0.35237794	      0.90409021	     -0.90120262	     45.76056286	    -12.96398480	     -0.72976623	     60.29730810	      1.05238656	     18.75641100	      0.00000000	      0.00000000	     44.58239422	     -7.05810190	     -1.24850178	     58.16707577	      1.01520699	     24.97565292	      0.00000000	      0.00000000	     -6.96093329	     -2.04603584	     -6.77223474	      0.54854240	    -39.83255778	     65.33290868	     72.19815194	     87.72386701	      0.00000000	      0.00000000	    -12.15624358	    -42.72920096	     52.35855981	     80.25441619	     87.70023224	      0.00000000	      0.00000000
      4.59500000	    -16.30556762	      2.02035211	      3.71507380	     -0.34779530	      0.91581120	     -0.90158519	     43.61954386	    -13.00539055	     -1.11081326	     57.88152784	      1.01022324	     16.87672719	      0.00000000	      0.00000000	     42.34526986	     -6.89650806	     -1.32253107	     55.65258915	      0.97132092	     23.34054000	      0.00000000	      0.00000000	     -6.80536901	     -2.10543723	     -6.76557807	      0.36089079	    -39.73149465	     65.11303367	     72.05329093	     87.70745623	      0.00000000	      0.00000000	    -12.49834195	    -42.57713970	     52.00799925	     80.15558177	     87.70023797	      0.00000000	      0.00000000
      4.60000000	    -15.63532158	      2.20799011	      3.58042796	     -0.34329060	      0.92788312	     -0.90203275	     41.49906850	    -13.10558738	     -1.45196358	     55.27866061	      0.96479463	     14.79944311	      0.00000000	      0.00000000	     40.14534491	     -6.67044773	     -1.44003975	     53.09368023	      0.92665953	     21.61118607	      0.00000000	      0.00000000	     -6.60307033	     -2.25666382	     -6.75448855	      0.16253868	    -39.62690596	     64.92972496	     71.90597769	     87.70969766	      0.00000000	      0.00000000	    -12.82150901	    -42.44262095	     51.65703877	     80.04245783	     87.69313236	      0.00000000	      0.00000000
      4.60500000	    -14.83049517	      2.56908048	      3.33050602	     -0.33832119	      0.94040377	     -0.90249107	     39.19667247	    -13.27835934	     -1.59576777	     52.53022937	      0.91682546	     12.59197311	      0.00000000	      0.00000000	     37.59325395	     -6.29312895	     -1.69521956	     50.16623084	      0.87556590	     19.46837425	      0.00000000	      0.00000000	     -6.51528526	     -2.57017291	     -6.60038172	     -0.05431175	    -39.53601180	     64.71326615	     71.81182664	     87.69568460	      0.00000000	      0.00000000	    -13.14984583	    -42.28958700	     51.34002805	     79.85073000	     87.68843459	      0.00000000	      0.00000000
      4.61000000	    -14.28576201	      2.57052555	      3.35034666	     -0.33404410	      0.95279931	     -0.90279037	     37.02909600	    -13.23169705	     -2.09703987	     49.60524365	      0.86577483	     10.25373258	      0.00000000	      0.00000000	     35.50634903	     -6.11485985	     -1.62238584	     47.21933183	      0.82413281	     16.90672052	      0.00000000	      0.00000000	     -6.19921756	     -2.54461982	     -6.65495629	     -0.33423353	    -39.44140719	     64.53836369	     71.72240321	     87.69656965	      0.00000000	      0.00000000	    -13.48882199	    -42.20948857	     51.02377331	     79.77642119	     87.68590532	      0.00000000	      0.00000000
      4.61500000	    -13.45694451	      2.99271687	      3.05060733	     -0.32887016	      0.96589125	     -0.90322610	     34.55851263	    -13.38662004	     -2.12830200	     46.48221595	      0.81126771	      7.46156649	      0.00000000	      0.00000000	     32.77963406	     -5.66017568	     -1.86053983	     43.94831218	      0.76704275	     14.04429120	      0.00000000	      0.00000000	     -6.13215789	     -2.92898992	     -6.50883032	     -0.56276838	    -39.33531793	     64.23419239	     71.62036389	     87.63126907	      0.00000000	      0.00000000	    -13.87433946	    -42.04807939	     50.69783525	     79.57203987	     87.67951819	      0.00000000	      0.00000000
      4.62000000	    -12.77646252	      3.21219604	      2.88014299	     -0.32395003	      0.97891242	     -0.90349551	     32.12699115	    -13.42554678	     -2.41858135	     43.16102942	      0.75330207	      4.58685127	      0.00000000	      0.00000000	     30.25881585	     -5.36588981	     -2.09768034	     40.54523179	      0.70764779	     11.18418358	      0.00000000	      0.00000000	     -5.92692809	     -3.13572980	     -6.46363268	     -0.85327268	    -39.23111149	     63.96816350	     71.46539849	     87.57369455	      0.00000000	      0.00000000	    -14.28549781	    -41.90983819	     50.39178385	     79.41476782	     87.67044336	      0.00000000	      0.00000000
      4.62500000	    -12.02217560	      3.26737281	      2.81183624	     -0.31932817	      0.99219930	     -0.90357892	     29.53001830	    -13.32464913	     -2.89415987	     39.64029430	      0.69185365	      1.25970503	      0.00000000	      0.00000000	     27.70840973	     -5.15172114	     -1.93082883	     37.08951086	      0.64733408	      7.76890640	      0.00000000	      0.00000000	     -5.85705770	     -3.15497015	     -6.48637380	     -1.15577412	    -39.11251716	     63.75851532	     71.35238555	     87.58499019	      0.00000000	      0.00000000	    -14.64502479	    -41.80897629	     50.07258107	     79.21545324	     87.67857998	      0.00000000	      0.00000000
      4.63000000	    -11.03354498	      3.71123576	      2.49249470	     -0.31377500	      1.00605842	     -0.90382996	     26.63119476	    -13.51983287	     -3.13744400	     35.92238971	      0.62696398	     -2.30872837	      0.00000000	      0.00000000	     24.59581320	     -4.66131058	     -2.44703166	     33.25337403	      0.58038086	      4.43493149	      0.00000000	      0.00000000	     -5.98090225	     -3.59809376	     -6.30493578	     -1.39993580	    -38.99040249	     63.62091318	     71.09000378	     87.59683413	      0.00000000	      0.00000000	    -15.00869350	    -41.59977197	     49.71864064	     78.93629078	     87.68545084	      0.00000000	      0.00000000
      4.63500000	    -10.65234460	      3.52816149	      2.53209934	     -0.30947952	      1.01904448	     -0.90385738	     24.26638376	    -13.08117514	     -3.41495127	     31.99159594	      0.55835868	     -6.00901249	      0.00000000	      0.00000000	     22.49411067	     -4.61582905	     -2.00365773	     29.65318527	      0.51754572	      0.46567208	      0.00000000	      0.00000000	     -5.49110674	     -3.39910653	     -6.44440085	     -1.58477956	    -38.91790266	     63.38123047	     71.00648117	     87.54010750	      0.00000000	      0.00000000	    -15.33970241	    -41.44232126	     49.50449871	     78.68904220	     87.66533486	      0.00000000	      0.00000000
      4.64000000	     -9.71033639	      3.80273497	      2.29340441	     -0.30384392	      1.03293627	     -0.90413078	     21.19154227	    -13.07319857	     -3.59320796	     27.72993079	      0.48397859	    -10.62835138	      0.00000000	      0.00000000	     19.40345812	     -4.20021583	     -2.21933011	     25.50653140	      0.44517295	     -3.90113467	      0.00000000	      0.00000000	     -5.54077676	     -3.65222239	     -6.35289909	     -1.93607467	    -38.88573329	     63.29555486	     70.93160568	     87.55198462	      0.00000000	      0.00000000	    -15.66882199	    -41.21303560	     49.34570540	     78.30449900	     87.65974770	      0.00000000	      0.00000000
